{"title":"96.Minutes.2011.VODRip.XviD.Feel-Free","uid":7138483,"size":838262414,"categoryP":"video","categoryS":"movies","magnet":"?xt=urn:btih:4dd8a8859eb1226b285d93569aeb44c50f0ca410&amp;dn=96.Minutes.2011.VODRip.XviD.Feel-Free&amp;tr=udp%3A%2F%2Ftracker.openbittorrent.com%3A80&amp;tr=udp%3A%2F%2Fopen.demonii.com%3A1337&amp;tr=udp%3A%2F%2Ftracker.coppersurfer.tk%3A6969&amp;tr=udp%3A%2F%2Fexodus.desync.com%3A6969","seeders":1,"leechers":0,"uploader":null,"files":8,"time":1332928741,"description":"\n\n\nGenre: Drama | Thriller \nLanguage:English\nIMDb:http://www.imdb.com/title/tt1641385/\nSource:HK INC Thanks!\nEncoder:Boom24\n\nFormat : AVI\nFormat/Info : Audio Video Interleave\nFile size : 798 MiB\nDuration : 1h 30mn\nOverall bit rate : 1 233 Kbps\n\nVideo\nID : 0\nFormat : MPEG-4 Visual\nFormat profile : Advanced Simple@L5\nFormat settings, BVOP : 1\nFormat settings, QPel : No\nFormat settings, GMC : No warppoints\nFormat settings, Matrix : Default (H.263)\nCodec ID : XVID\nCodec ID/Hint : XviD\nDuration : 1h 30mn\nBit rate : 1 000 Kbps\nWidth : 720 pixels\nHeight : 304 pixels\nDisplay aspect ratio : 2.35:1\nFrame rate : 23.976 fps\nColor space : YUV\nChroma subsampling : 4:2:0\nBit depth : 8 bits\nScan type : Progressive\nCompression mode : Lossy\nBits/(Pixel*Frame) : 0.191\nStream size : 647 MiB (81%)\nWriting library : XviD 1.2.1 (UTC 2008-12-04)\n\nAudio\nID : 1\nFormat : AC-3\nFormat/Info : Audio Coding 3\nMode extension : CM (complete main)\nCodec ID : 2000\nDuration : 1h 30mn\nBit rate mode : Constant\nBit rate : 224 Kbps\nChannel(s) : 2 channels\nChannel positions : Front: L R\nSampling rate : 48.0 KHz\nBit depth : 16 bits\nCompression mode : Lossy\nStream size : 145 MiB (18%)\nAlignment : Aligned on interleaves\nInterleave, duration : 42 ms (1.00 video frame)\nInterleave, preload duration : 512 ms\n\n\nPlot:\nThe story of 4 lives slammed together in a shocking moment. Intercutting between a carjacking and the separate stories of the 4 kids, we watch as they hurtle toward a life-changing end. ","torrent":{"xt":"urn:btih:4dd8a8859eb1226b285d93569aeb44c50f0ca410","amp;dn":"96.Minutes.2011.VODRip.XviD.Feel-Free","amp;tr":["udp%3A%2F%2Ftracker.openbittorrent.com%3A80","udp%3A%2F%2Fopen.demonii.com%3A1337","udp%3A%2F%2Ftracker.coppersurfer.tk%3A6969","udp%3A%2F%2Fexodus.desync.com%3A6969"],"infoHash":"4dd8a8859eb1226b285d93569aeb44c50f0ca410","infoHashBuffer":{"type":"Buffer","data":[77,216,168,133,158,177,34,107,40,93,147,86,154,235,68,197,15,12,164,16]},"announce":[],"urlList":[]}}